<?xml version="1.0" encoding="UTF-8"?>
<svg id="Layer_2" data-name="Layer 2" xmlns="http://www.w3.org/2000/svg" viewBox="0 0 1918.81 765.7">
  <defs>
    <style>
      .cls-1 {
        fill: #fff;
        stroke-width: 0px;
      }
    </style>
  </defs>
  <g id="Layer_1-2" data-name="Layer 1">
    <g>
      <path class="cls-1" d="m0,227.76C0,95.01,101.93,0,239.09,0c76.13,0,139.68,27.69,181.2,78.02l-65.43,60.4c-29.57-33.97-66.69-51.59-110.74-51.59-82.42,0-140.94,57.88-140.94,140.94s58.52,140.94,140.94,140.94c44.04,0,81.17-17.62,110.74-52.22l65.43,60.4c-41.53,50.96-105.07,78.65-181.83,78.65C101.93,455.53,0,360.52,0,227.76Z"/>
      <path class="cls-1" d="m451.73,227.76C451.73,95.01,553.65,0,690.81,0c76.13,0,139.68,27.69,181.2,78.02l-65.43,60.4c-29.57-33.97-66.69-51.59-110.74-51.59-82.42,0-140.94,57.88-140.94,140.94s58.52,140.94,140.94,140.94c44.04,0,81.17-17.62,110.74-52.22l65.43,60.4c-41.53,50.96-105.07,78.65-181.83,78.65-136.53,0-238.46-95.01-238.46-227.76Z"/>
      <path class="cls-1" d="m1344.5,327.8c0,76.13-60.4,120.18-176.17,120.18h-227.76V7.55h215.18c110.11,0,166.73,45.93,166.73,114.51,0,44.04-22.64,78.02-58.51,96.89,49.07,15.73,80.53,53.48,80.53,108.85Zm-302.64-243.49v103.81h101.3c49.7,0,76.76-17.62,76.76-52.22s-27.05-51.59-76.76-51.59h-101.3Zm200.08,232.8c0-37.12-28.31-54.74-81.16-54.74h-118.92v108.85h118.92c52.85,0,81.16-16.36,81.16-54.11Z"/>
      <path class="cls-1" d="m1822.66,447.98l-.63-264.26-129.61,217.69h-45.93l-128.98-212.03v258.59h-95.63V7.55h84.31l164.85,273.69L1833.35,7.55h83.68l1.26,440.42h-95.63Z"/>
      <path class="cls-1" d="m206.94,707.51c0,35.44-26.88,55.82-79.15,55.82H29.14v-206.74h92.74c47.55,0,74.13,20.08,74.13,53.45,0,22.45-11.52,38.1-27.76,46.08,23.33,6.5,38.69,23.92,38.69,51.39Zm-148.26-127v66.16h60.54c30.13,0,47.25-11.22,47.25-33.08s-17.13-33.08-47.25-33.08h-60.54Zm118.43,124.63c0-23.92-17.72-34.56-50.51-34.56H58.68v68.82h67.93c32.78,0,50.51-10.34,50.51-34.26Z"/>
      <path class="cls-1" d="m390.9,763.33l-44.6-63.5c-4.13.3-8.56.59-13,.59h-51.09v62.91h-29.54v-206.74h80.63c53.75,0,86.24,27.17,86.24,72.06,0,31.9-16.54,54.93-45.48,65.27l49.03,69.4h-32.19Zm-.89-134.68c0-29.54-19.79-46.37-57.59-46.37h-50.21v93.03h50.21c37.8,0,57.59-17.13,57.59-46.66Z"/>
      <path class="cls-1" d="m450.54,659.96c0-60.54,46.67-105.73,110.16-105.73s109.57,44.89,109.57,105.73-46.67,105.73-109.57,105.73-110.16-45.19-110.16-105.73Zm190.2,0c0-45.78-34.26-79.45-80.04-79.45s-80.63,33.67-80.63,79.45,34.26,79.45,80.63,79.45,80.04-33.67,80.04-79.45Z"/>
      <path class="cls-1" d="m844.2,711.65h-109.87l-22.74,51.69h-30.42l93.62-206.74h29.24l93.92,206.74h-31.01l-22.74-51.69Zm-10.34-23.63l-44.6-101.3-44.6,101.3h89.2Z"/>
      <path class="cls-1" d="m928.64,556.6h87.12c66.45,0,111.64,41.94,111.64,103.37s-45.19,103.37-111.64,103.37h-87.12v-206.74Zm85.36,181.04c51.09,0,83.88-31.31,83.88-77.68s-32.78-77.67-83.88-77.67h-55.82v155.35h55.82Z"/>
      <path class="cls-1" d="m1155.72,659.96c0-61.14,46.67-105.73,109.57-105.73,31.9,0,59.66,10.93,78.56,32.19l-19.2,18.61c-15.95-16.83-35.44-24.51-58.18-24.51-46.67,0-81.22,33.67-81.22,79.45s34.56,79.45,81.22,79.45c22.74,0,42.23-7.98,58.18-24.81l19.2,18.61c-18.9,21.26-46.67,32.49-78.86,32.49-62.61,0-109.28-44.6-109.28-105.73Z"/>
      <path class="cls-1" d="m1512.76,711.65h-109.87l-22.74,51.69h-30.42l93.62-206.74h29.24l93.92,206.74h-31.01l-22.74-51.69Zm-10.34-23.63l-44.6-101.3-44.6,101.3h89.2Z"/>
      <path class="cls-1" d="m1578.3,739.71l10.93-23.04c15.36,13.88,41.65,23.92,68.23,23.92,35.73,0,51.09-13.88,51.09-31.89,0-50.51-125.22-18.61-125.22-95.4,0-31.9,24.81-59.07,79.15-59.07,24.22,0,49.32,6.5,66.45,18.31l-9.75,23.63c-18.02-11.52-38.39-16.84-56.71-16.84-35.15,0-50.21,14.77-50.21,32.78,0,50.5,125.23,18.9,125.23,94.81,0,31.6-25.4,58.77-80.04,58.77-31.6,0-62.61-10.63-79.15-25.99Z"/>
      <path class="cls-1" d="m1818.69,582.29h-70.88v-25.69h171v25.69h-70.88v181.04h-29.24v-181.04Z"/>
    </g>
  </g>
</svg>